<svg width="145" height="22" viewBox="0 0 145 22" fill="none" xmlns="http://www.w3.org/2000/svg">
<path d="M18.7262 11.2047C18.8131 10.9132 19.0014 10.6801 19.2621 10.5053C19.4503 10.4033 19.6531 10.345 19.8703 10.345C19.9428 10.345 20.0297 10.345 20.1166 10.3741C20.4207 10.4324 20.6524 10.5927 20.8117 10.8695C20.8986 11.0298 20.9421 11.2047 20.9421 11.3649C20.9421 11.4669 20.9276 11.5689 20.8986 11.6855C20.3338 13.4194 19.6097 14.993 18.7552 16.3917C18.6972 16.4791 18.6828 16.5811 18.7117 16.6831C18.8131 17.1931 18.929 17.5865 19.0303 17.8488C19.1462 18.111 19.2621 18.2567 19.4069 18.2713C19.6241 18.2713 19.769 17.7031 19.8848 16.5666C19.8848 16.348 20.0152 16.1877 20.2179 16.1149C20.4207 16.042 20.6234 16.0712 20.7972 16.2023C21.0869 16.4354 21.2897 16.7268 21.42 17.0474C21.5069 17.2514 21.5503 17.4699 21.5503 17.7031C21.5503 17.8196 21.5359 17.9362 21.5069 18.0673C21.2317 19.3058 20.9131 20.18 20.5076 20.6754C20.1166 21.1708 19.711 21.4185 19.291 21.4185C18.3207 21.4185 17.5531 20.588 17.0028 18.9561C16.9883 18.927 16.9593 18.9124 16.9303 18.8978C16.8869 18.8978 16.8724 18.8978 16.8579 18.927C16.2641 19.5972 15.6124 20.2237 14.9028 20.792C14.7 20.9377 14.4683 21.0105 14.2076 21.0105H14.0338C13.7007 20.9668 13.44 20.8211 13.2228 20.5589C13.049 20.3549 12.9476 20.1218 12.9476 19.8886V19.7575C12.991 19.4515 13.1359 19.2184 13.3676 19.0435C13.5414 18.927 13.7152 18.7958 13.889 18.6647C13.889 18.6647 13.9034 18.621 13.889 18.5919C13.889 18.5627 13.86 18.5481 13.831 18.5481H10.7172C10.6159 18.5481 10.5579 18.6064 10.5579 18.7084V18.8396C10.5579 19.1164 10.4566 19.3641 10.2538 19.5681C10.051 19.7721 9.80483 19.8741 9.51517 19.8741C9.22552 19.8741 8.97931 19.7721 8.77655 19.5681C8.57379 19.3641 8.47241 19.131 8.47241 18.8396V11.5981C8.47241 11.2338 8.60276 10.9278 8.84897 10.6655C9.09517 10.4033 9.41379 10.2721 9.79035 10.2721H13.44C13.8166 10.2721 14.1207 10.4033 14.3814 10.6655C14.6421 10.9278 14.7579 11.2338 14.7579 11.5981V17.6739C14.7579 17.6739 14.7724 17.7322 14.8014 17.7468C14.8303 17.7468 14.8593 17.7468 14.8883 17.7176C15.3372 17.2659 15.7572 16.7706 16.1628 16.2169C16.2352 16.1295 16.2641 16.0275 16.2497 15.8963C15.96 14.1187 15.7717 11.9623 15.6703 9.44163C15.6559 9.32507 15.5979 9.26679 15.4966 9.26679H8.66069C8.35655 9.26679 8.11034 9.1648 7.90759 8.96081C7.70483 8.75683 7.60345 8.50913 7.60345 8.21772C7.60345 7.92631 7.70483 7.67861 7.90759 7.47463C8.11034 7.27064 8.35655 7.15408 8.66069 7.15408H8.89241C8.99379 7.15408 9.05172 7.09579 9.05172 6.9938C9.00828 6.55669 8.93586 6.105 8.84897 5.60961C8.83448 5.52219 8.82 5.43476 8.82 5.34734C8.82 5.12879 8.87793 4.91023 8.99379 4.69168C9.1531 4.41484 9.39931 4.22542 9.70345 4.15257L9.73241 4.12343C9.73241 4.12343 9.73241 4.12343 9.70345 4.12343H8.80552C8.60276 4.12343 8.41448 4.05058 8.26966 3.90487C8.12483 3.75917 8.05241 3.56976 8.05241 3.36577C8.05241 3.30749 8.02345 3.27835 7.96552 3.27835H7.35724C7.24138 3.27835 7.18345 3.33663 7.18345 3.45319V20.2966C7.18345 20.6171 7.06759 20.8794 6.85034 21.098C6.6331 21.3165 6.37241 21.4331 6.05379 21.4331C5.73517 21.4331 5.47448 21.3165 5.24276 21.098C5.01103 20.8794 4.90966 20.6026 4.90966 20.2966V17.6739C4.90966 17.5719 4.85172 17.5282 4.75034 17.5574C3.30207 17.8488 2.23034 18.0819 1.52069 18.2276C1.43379 18.2422 1.3469 18.2567 1.24552 18.2567C1.01379 18.2567 0.782069 18.1839 0.550345 18.0382C0.26069 17.8488 0.0868965 17.5719 0.0289655 17.2368L0 17.1931V16.9745C0 16.7414 0.0724139 16.5083 0.202759 16.3043C0.391035 16.042 0.651724 15.8672 0.984828 15.8089C1.08621 15.7943 1.14414 15.7361 1.14414 15.6341V3.39491C1.14414 3.32205 1.11517 3.27835 1.05724 3.27835C0.825517 3.27835 0.637241 3.20549 0.477931 3.04522C0.318621 2.88494 0.246207 2.7101 0.246207 2.49154V2.08357C0.246207 1.74845 0.362069 1.47161 0.593793 1.23848C0.825517 1.00536 1.10069 0.888797 1.43379 0.888797H7.00965C7.32828 0.888797 7.58897 0.990786 7.79172 1.20934C7.99448 1.41333 8.11034 1.6756 8.11034 1.99615C8.11034 2.08357 8.16828 2.12728 8.26966 2.12728H10.1959C10.3117 2.12728 10.3697 2.069 10.3697 1.95244V1.20934C10.3697 0.888793 10.4855 0.626526 10.7028 0.40797C10.92 0.189414 11.1952 0.072851 11.5283 0.072851C11.8614 0.072851 12.1221 0.189414 12.3393 0.40797C12.5566 0.626526 12.6724 0.903363 12.6724 1.20934V1.95244C12.6724 2.069 12.7303 2.12728 12.8462 2.12728H14.0048C14.28 2.12728 14.5117 2.22927 14.7145 2.41869C14.9172 2.60811 15.0186 2.84123 15.0186 3.11807C15.0186 3.39491 14.9172 3.62803 14.7145 3.81745C14.5117 4.00686 14.28 4.10886 14.0048 4.10886H13.1938H13.1648C13.1648 4.10886 13.1648 4.10886 13.1938 4.10886L13.2807 4.138C13.6283 4.21085 13.889 4.40027 14.0628 4.69168C14.1641 4.86652 14.2221 5.05593 14.2221 5.24535C14.2221 5.37648 14.1931 5.50762 14.1497 5.62418C13.889 6.42556 13.7586 6.87724 13.7297 6.96466C13.7152 7.00837 13.7297 7.05209 13.7297 7.08123C13.7586 7.11037 13.7876 7.12494 13.831 7.12494H15.3372C15.4386 7.12494 15.4966 7.06665 15.4966 6.96466C15.4241 4.35655 15.3807 2.41869 15.3807 1.16563C15.3807 0.845083 15.4966 0.582816 15.7138 0.335119C15.931 0.116563 16.2207 0 16.5393 0C16.8579 0 17.1476 0.11656 17.3793 0.349687C17.611 0.582814 17.7269 0.859654 17.7269 1.19477V1.55903C17.7269 1.55903 17.7414 1.63189 17.7848 1.64646C17.8138 1.66103 17.8572 1.66103 17.8862 1.64646L18.0455 1.55903C18.2772 1.44247 18.5234 1.38419 18.7841 1.38419C18.8855 1.38419 19.0014 1.38419 19.1172 1.41333C19.4938 1.50076 19.7834 1.70474 20.0152 2.02529C20.3772 2.54982 20.6959 3.08893 21 3.64261C21.0724 3.80288 21.1159 3.97773 21.1159 4.138C21.1159 4.25456 21.1014 4.37113 21.0724 4.47312C20.971 4.7791 20.7828 4.99765 20.5076 5.14336C20.3628 5.21621 20.2034 5.25992 20.0441 5.25992C19.9428 5.25992 19.8414 5.24535 19.7255 5.21621C19.4503 5.12879 19.2621 4.95394 19.1172 4.6771C18.7552 3.91944 18.3352 3.17635 17.8428 2.4624C17.8283 2.44783 17.8138 2.44783 17.7703 2.4624C17.7269 2.47697 17.7269 2.49154 17.7269 2.52068C17.7414 4.07972 17.7703 5.58047 17.7993 7.02294C17.8138 7.12494 17.8717 7.18322 17.9731 7.18322H20.2759C20.58 7.18322 20.8262 7.28521 21.029 7.50377C21.2317 7.70776 21.3331 7.95545 21.3331 8.24686C21.3331 8.53827 21.2317 8.78596 21.029 8.98995C20.8262 9.19393 20.58 9.29593 20.2759 9.29593H18.06C17.9586 9.29593 17.9007 9.35421 17.9007 9.47077C17.9441 10.5636 18.0021 11.5689 18.0745 12.5014C18.0745 12.5306 18.0745 12.5451 18.1034 12.5451C18.1324 12.5451 18.1469 12.5451 18.1614 12.516C18.3062 12.0935 18.4655 11.6709 18.6103 11.2192L18.7262 11.2047ZM4.77931 5.76989C4.89517 5.76989 4.9531 5.71161 4.9531 5.59504V3.46776C4.9531 3.3512 4.89517 3.29291 4.77931 3.29291H3.62069C3.50483 3.29291 3.4469 3.3512 3.4469 3.46776V5.59504C3.4469 5.71161 3.50483 5.76989 3.62069 5.76989H4.77931ZM4.77931 10.447C4.89517 10.447 4.9531 10.3887 4.9531 10.2721V8.11572C4.9531 8.01373 4.89517 7.95545 4.77931 7.95545H3.62069C3.50483 7.95545 3.4469 8.01373 3.4469 8.11572V10.2721C3.4469 10.3887 3.50483 10.447 3.62069 10.447H4.77931ZM3.43241 15.2407C3.43241 15.3572 3.49034 15.4009 3.60621 15.3718L4.79379 15.1678C4.89517 15.1387 4.9531 15.0658 4.9531 14.9638V12.7928C4.9531 12.6908 4.89517 12.6326 4.77931 12.6326H3.62069C3.50483 12.6326 3.4469 12.6908 3.4469 12.7928V15.2407H3.43241ZM12.6 4.2837C12.6145 4.18171 12.571 4.12343 12.4407 4.12343H10.5145C10.5145 4.12343 10.4421 4.138 10.4131 4.16714C10.3841 4.19628 10.3841 4.23999 10.4131 4.2837C10.5869 4.7791 10.7317 5.34735 10.8331 5.98844C10.8476 6.04673 10.8621 6.10501 10.8621 6.16329C10.8621 6.3527 10.8041 6.54212 10.6883 6.71697C10.529 6.93552 10.3117 7.08123 10.0366 7.13951C10.0366 7.15408 10.0366 7.16864 10.051 7.16864H13.0779C13.0779 7.16864 13.1069 7.16865 13.1069 7.13951C12.8028 7.06666 12.5855 6.90638 12.4407 6.64411C12.3393 6.48384 12.2814 6.29442 12.2814 6.105C12.2814 6.01758 12.2814 5.93016 12.3103 5.84274C12.4407 5.27449 12.5421 4.74996 12.629 4.26913L12.6 4.2837ZM12.6869 12.3557C12.6869 12.2392 12.629 12.1809 12.5276 12.1809H10.7317C10.6303 12.1809 10.5724 12.2392 10.5724 12.3557V13.3902C10.5724 13.5068 10.6303 13.5651 10.7317 13.5651H12.5276C12.629 13.5651 12.6869 13.5068 12.6869 13.3902V12.3557ZM10.5869 16.5374C10.5869 16.6394 10.6448 16.6977 10.7462 16.6977H12.5421C12.6434 16.6977 12.7014 16.6394 12.7014 16.5374V15.4884C12.7014 15.3864 12.6434 15.3281 12.5421 15.3281H10.7462C10.6448 15.3281 10.5869 15.3864 10.5869 15.4884V16.5374Z" fill="#56BDB2"/>
<path d="M71.6331 10.4345C71.6331 10.7114 71.5607 10.9736 71.3579 11.1776C71.1696 11.3962 70.9234 11.5127 70.6482 11.5419C70.5613 11.5565 70.5179 11.6147 70.5179 11.7022V19.0019C70.5179 19.5265 70.46 19.949 70.3441 20.255C70.2282 20.561 70.011 20.8232 69.6924 21.0127C69.3013 21.2312 68.7365 21.3769 67.9834 21.4206H67.8965C67.6358 21.4206 67.3751 21.3186 67.1434 21.1292C66.8972 20.9252 66.7379 20.663 66.622 20.3424C66.5931 20.255 66.5786 20.1676 66.5786 20.0802C66.5786 19.9344 66.6365 19.7742 66.7379 19.6285C66.8827 19.4245 67.0855 19.3079 67.3462 19.3079H67.9979C68.1138 19.3079 68.2007 19.2788 68.2586 19.2351C68.3165 19.1768 68.331 19.0748 68.331 18.9291V11.9353C68.331 11.8333 68.2731 11.7896 68.1572 11.8042L65.3186 12.0956C65.2172 12.0956 65.1593 12.1538 65.1448 12.2704C65.0869 15.8256 64.6234 18.5503 63.7834 20.4444C63.6675 20.6921 63.4648 20.8524 63.1751 20.9107C63.1027 20.9252 63.0303 20.9398 62.9579 20.9398C62.7551 20.9398 62.5524 20.8815 62.3786 20.765C62.1469 20.6047 61.9731 20.3716 61.8862 20.0947C61.8427 19.9782 61.8138 19.8616 61.8138 19.7305C61.8138 19.5702 61.8427 19.3953 61.9296 19.2351C62.5958 17.6615 62.9724 15.403 63.0303 12.4453C63.0303 12.3578 62.9869 12.3141 62.9 12.3141H62.8275C62.8275 12.3141 62.7407 12.3433 62.7117 12.3433C62.4365 12.3433 62.2048 12.2558 62.002 12.081C61.7703 11.8916 61.6255 11.6439 61.5965 11.3379C61.582 11.2942 61.582 11.2505 61.582 11.2068C61.582 10.9736 61.6689 10.7551 61.8282 10.5511C62.0165 10.318 62.2627 10.1868 62.5669 10.1723L62.8855 10.1431C62.9869 10.1286 63.0448 10.0703 63.0448 9.96828V4.41695C63.0448 4.03811 63.1751 3.73214 63.4358 3.46987C63.6965 3.22217 64.0151 3.09104 64.3627 3.09104H64.971C65.0869 3.09104 65.1593 3.03275 65.1738 2.93076C65.3041 2.39166 65.4344 1.85255 65.5358 1.31345C65.6082 0.949188 65.7965 0.657776 66.1007 0.43922C66.3324 0.278945 66.5931 0.191526 66.8538 0.191526C66.9262 0.191526 66.9986 0.191526 67.071 0.220667L67.3172 0.249803C67.6648 0.308085 67.9255 0.482934 68.0993 0.788913C68.2151 0.963758 68.2731 1.15317 68.2731 1.34258C68.2731 1.45915 68.2441 1.57571 68.2007 1.70685C68.0558 2.1731 67.911 2.58107 67.7951 2.94533C67.7807 2.97448 67.7951 3.00362 67.7951 3.04733C67.8241 3.09104 67.8531 3.10561 67.8965 3.10561H69.2144C69.591 3.10561 69.8951 3.23674 70.1558 3.48444C70.4165 3.73214 70.5324 4.05269 70.5324 4.43152V9.35632C70.5324 9.44374 70.5758 9.48745 70.6627 9.47288H70.7496C70.9669 9.47288 71.1696 9.5603 71.3579 9.72058C71.5462 9.88085 71.6475 10.0994 71.6475 10.3762V10.4491L71.6331 10.4345ZM65.3041 5.23289C65.2027 5.23289 65.1448 5.29117 65.1448 5.40773V9.79344C65.1448 9.89543 65.2027 9.95371 65.3041 9.95371C65.6662 9.92456 66.1875 9.88086 66.8682 9.808C67.5489 9.73515 67.9834 9.70601 68.1427 9.69144C68.2586 9.69144 68.3165 9.63316 68.3165 9.51659V5.42231C68.3165 5.30574 68.2586 5.24746 68.1427 5.24746H65.3041V5.23289ZM65.7241 7.15619C65.6227 6.96677 65.6082 6.76278 65.6951 6.54423C65.782 6.32567 65.9269 6.17997 66.1296 6.07797C66.3469 5.99055 66.5786 5.97598 66.8248 6.04884C67.0565 6.12169 67.2303 6.26739 67.3462 6.50052C67.5489 6.92306 67.7372 7.33103 67.882 7.73901C67.911 7.841 67.9255 7.94299 67.9255 8.03041C67.9255 8.17611 67.882 8.32182 67.8096 8.45295C67.6938 8.68608 67.5055 8.86093 67.2448 8.96292C67.0275 9.05034 66.8248 9.03577 66.6075 8.93378C66.3903 8.81722 66.2455 8.64237 66.1731 8.40924C66.0572 7.9867 65.9124 7.57873 65.7241 7.15619ZM66.0717 12.6201C66.231 12.4744 66.4193 12.4015 66.6365 12.4015C66.8538 12.4015 67.0275 12.4744 67.1869 12.6201C67.3317 12.7658 67.4041 12.9552 67.4041 13.1592V16.8601C67.4041 17.0786 67.3317 17.2681 67.1869 17.4138C67.042 17.5595 66.8538 17.6323 66.6365 17.6323C66.4193 17.6323 66.231 17.5595 66.0717 17.4138C65.9124 17.2681 65.84 17.0786 65.84 16.8601V13.1592C65.84 12.9552 65.9124 12.7658 66.0717 12.6201ZM81.6262 3.48444C81.9593 3.48444 82.2344 3.601 82.4662 3.83413C82.6979 4.06726 82.8138 4.34409 82.8138 4.67921C82.8138 5.01433 82.6979 5.30574 82.4662 5.5243C82.2344 5.75743 81.9593 5.87399 81.6262 5.87399H72.2703C71.9372 5.87399 71.662 5.75743 71.4303 5.5243C71.1986 5.29117 71.0827 5.01433 71.0827 4.67921C71.0827 4.34409 71.1986 4.05269 71.4303 3.83413C71.662 3.61558 71.9372 3.48444 72.2703 3.48444H75.3407C75.442 3.48444 75.5 3.42616 75.5 3.32416V1.35716C75.5 0.978327 75.6303 0.672346 75.891 0.410079C76.1517 0.162381 76.4703 0.03125 76.8324 0.03125C77.1944 0.03125 77.5131 0.162381 77.7593 0.410079C78.02 0.657776 78.1358 0.978327 78.1358 1.35716V3.32416C78.1358 3.42616 78.1938 3.48444 78.3096 3.48444H81.6262ZM80.6124 18.8271H80.9455C81.0613 18.8271 81.1482 18.798 81.2206 18.7397C81.2931 18.6523 81.351 18.4337 81.3944 18.084C81.4089 17.7489 81.4234 17.2826 81.4234 16.6707C81.4379 16.4521 81.5393 16.2773 81.742 16.1753C81.9303 16.0733 82.1331 16.0733 82.3213 16.1753C82.5965 16.321 82.8282 16.5395 82.9875 16.8018C83.1324 17.0349 83.2048 17.2972 83.2048 17.5595C83.2048 17.7489 83.1758 18.1714 83.1179 18.8125C83.0889 19.1622 83.0455 19.4099 83.002 19.5993C82.8717 20.1093 82.64 20.4881 82.3069 20.765C81.9738 20.9981 81.5393 21.1292 80.9889 21.1292H79.8448C79.1931 21.1292 78.6717 20.9398 78.2806 20.5464C78.0924 20.357 77.9475 20.0802 77.8751 19.7159C77.8027 19.3516 77.7593 18.7542 77.7593 17.9237V10.1868C77.7593 10.0703 77.7013 10.012 77.5855 10.012H75.5C75.3841 10.012 75.3262 10.0703 75.3262 10.1868V12.8241C75.3262 16.1461 74.7324 18.6814 73.5593 20.4444C73.371 20.7213 73.0958 20.8815 72.7338 20.9107H72.6034C72.2848 20.9107 71.9951 20.8087 71.7344 20.6193C71.4593 20.4298 71.3 20.1676 71.242 19.8325C71.2275 19.7596 71.2131 19.6868 71.2131 19.6139C71.2131 19.3662 71.2855 19.1331 71.4303 18.9145C71.9662 18.0694 72.3282 17.1369 72.5165 16.117C72.7048 15.0971 72.7917 13.9897 72.7917 12.7804V8.97749C72.7917 8.59866 72.922 8.29268 73.1682 8.03041C73.4289 7.78271 73.7331 7.65158 74.1096 7.65158H78.9613C79.3379 7.65158 79.642 7.78271 79.9027 8.03041C80.1489 8.27811 80.2793 8.59866 80.2793 8.97749V17.8509C80.2793 18.084 80.2793 18.288 80.3082 18.4191C80.3372 18.5503 80.3517 18.6522 80.3807 18.696C80.4096 18.7688 80.482 18.8125 80.5979 18.8125L80.6124 18.8271Z" fill="#56BDB2"/>
<path d="M130.693 15.0242C130.693 15.0242 130.693 15.1116 130.736 15.1408C130.765 15.1699 130.794 15.1845 130.823 15.1699L131.113 15.0971C131.199 15.0825 131.286 15.0679 131.388 15.0679C131.605 15.0679 131.822 15.1408 132.039 15.2865C132.3 15.4759 132.459 15.7382 132.488 16.0733C132.503 16.1316 132.517 16.1898 132.517 16.2336C132.517 16.5541 132.43 16.8309 132.242 17.0786C132.025 17.3555 131.735 17.5449 131.388 17.6323C129.795 18.0257 127.622 18.5211 124.87 19.1331C124.769 19.1622 124.668 19.1768 124.581 19.1768C124.349 19.1768 124.117 19.1039 123.886 18.9582C123.581 18.7688 123.393 18.492 123.321 18.1277L123.292 17.9966C123.277 17.9092 123.277 17.8217 123.277 17.7343C123.277 17.4866 123.35 17.2389 123.495 17.0204C123.697 16.729 123.987 16.5395 124.349 16.4813C125.479 16.2627 126.811 15.9859 128.361 15.6799C128.245 15.6507 128.201 15.5779 128.23 15.4613C128.636 13.4798 128.926 11.1776 129.128 8.58409C129.157 8.21983 129.317 7.94299 129.592 7.73901C129.795 7.56416 130.041 7.47674 130.301 7.47674C130.374 7.47674 130.446 7.47674 130.519 7.50588H130.562C130.924 7.56416 131.214 7.739 131.431 8.04498C131.605 8.27811 131.706 8.54038 131.706 8.83179C131.706 8.90464 131.706 8.97749 131.677 9.03577C131.359 11.3233 131.026 13.334 130.678 15.0679L130.693 15.0242ZM131.127 4.27124C131.475 4.27124 131.764 4.38781 132.025 4.6355C132.286 4.8832 132.401 5.17461 132.401 5.5243C132.401 5.87399 132.271 6.17997 132.025 6.42766C131.764 6.67536 131.475 6.80649 131.127 6.80649H124.813C124.465 6.80649 124.175 6.67536 123.915 6.42766C123.654 6.17997 123.538 5.87399 123.538 5.5243C123.538 5.17461 123.668 4.86863 123.915 4.6355C124.175 4.38781 124.465 4.27124 124.813 4.27124H126.623C126.739 4.27124 126.797 4.21296 126.797 4.11097V1.60485C126.797 1.25516 126.927 0.963753 127.173 0.716056C127.419 0.468359 127.709 0.351796 128.057 0.351796C128.404 0.351796 128.694 0.468359 128.94 0.716056C129.186 0.963753 129.317 1.25516 129.317 1.60485V4.11097C129.317 4.21296 129.375 4.27124 129.49 4.27124H131.127ZM127.231 14.0626C127.231 14.3831 127.13 14.66 126.941 14.8931C126.724 15.1554 126.449 15.3302 126.116 15.3885C126.058 15.403 125.986 15.4176 125.913 15.4176C125.696 15.4176 125.493 15.3448 125.305 15.1991C125.073 15.0096 124.943 14.7474 124.928 14.4414C124.87 12.7512 124.668 10.9445 124.32 9.0212C124.306 8.94835 124.291 8.8755 124.291 8.80265C124.291 8.58409 124.364 8.36553 124.494 8.17612C124.668 7.92842 124.914 7.76815 125.204 7.70986C125.276 7.69529 125.348 7.68072 125.421 7.68072C125.638 7.68072 125.841 7.739 126.029 7.85557C126.304 8.03041 126.464 8.27811 126.521 8.56952C126.985 10.9736 127.217 12.8095 127.217 14.0771L127.231 14.0626ZM144.002 4.62093C144.263 4.86863 144.379 5.17461 144.379 5.53887C144.379 5.90313 144.248 6.20911 144.002 6.45681C143.741 6.7045 143.437 6.83564 143.09 6.83564H139.397C139.295 6.83564 139.237 6.89392 139.237 6.99591V10.6094C139.237 10.7259 139.295 10.7842 139.397 10.7842H142.308C142.684 10.7842 142.988 10.9154 143.249 11.1631C143.495 11.4107 143.626 11.7313 143.626 12.1101V20.0219C143.626 20.3861 143.495 20.6921 143.249 20.9544C142.988 21.2166 142.684 21.3478 142.308 21.3478H141.728C141.468 21.3478 141.265 21.2604 141.091 21.0855C140.917 20.9107 140.83 20.7067 140.83 20.4736C140.83 20.4007 140.801 20.357 140.715 20.357H135.515C135.443 20.357 135.399 20.4007 135.399 20.4736C135.399 20.7358 135.313 20.9689 135.124 21.1584C134.936 21.3478 134.704 21.4352 134.444 21.4352H134.067C133.705 21.4352 133.401 21.3041 133.14 21.0564C132.879 20.8087 132.749 20.4881 132.749 20.1093V12.1101C132.749 11.7313 132.879 11.4253 133.14 11.1631C133.401 10.9154 133.705 10.7842 134.067 10.7842H136.268C136.384 10.7842 136.442 10.7259 136.442 10.6094V1.35716C136.442 0.978327 136.573 0.672346 136.819 0.410079C137.079 0.162381 137.384 0.03125 137.76 0.03125H137.919C138.281 0.03125 138.586 0.162381 138.846 0.410079C139.107 0.657776 139.237 0.978327 139.237 1.35716V4.0964C139.237 4.19839 139.295 4.25667 139.397 4.25667H143.09C143.452 4.25667 143.756 4.38781 144.002 4.6355V4.62093ZM140.657 17.7926C140.758 17.7926 140.816 17.7343 140.816 17.6323V13.4943C140.816 13.3923 140.758 13.334 140.657 13.334H135.544C135.443 13.334 135.385 13.3923 135.385 13.4943V17.6323C135.385 17.7343 135.443 17.7926 135.544 17.7926H140.657Z" fill="#56BDB2"/>
</svg>
